<svg xmlns="http://www.w3.org/2000/svg" id="Calque_1" width="899" height="248" viewBox="0 0 899 247.9"><style>.a{fill:#B9AA77;}</style><path d="M18.3 0c3 0 6.1 0 9.1 0 11.2 2.7 18.5 9.4 22.8 19 1.3 0.6 2.5-1 3-1.5 3.2-2.9 5.5-6 9.1-7.6 0.3-0.1 0.5-1.3 0.8-1.5 1.5-0.9 4.6-2.1 6.8-3 5.8-2.5 11.9-4 19-4.6 19.5-1.4 35.3 8 41.8 19 2.5 4.3 4.8 8.3 6.1 12.9 3.6 13.1 1.6 30.4-3 39.6 -0.6 1.1-1.2 2.7-1.5 3 -1.1 1.1-1.5 2.1-2.3 3 -0.5 0.6-1 1.7-1.5 2.3 -0.8 0.8-1.7 0.4-3 1.5 -0.8 0.7-1.5 2.5-2.3 3 -0.9 0.6-3.1 1.5-4.6 2.3 -9.5 4.8-25.6 5.7-35.7 2.3 -4.8-1.6-7.8-3.7-10.6-6.1 -3.2-2.6-5-5.2-7.6-7.6 0.6 9.9-0.8 23.5 0 35 0.4 6 2.2 11.3 3.8 14.5 1.8 3.4 1.7 3.6 3.8 4.6 0.3 0.1 0.4 1.4 0.8 1.5 2.8 1.3 6.7 0.8 10.6 0 -0.6-2.4-3.4-2.1-4.6-3 -1.5-1.1-3.3-2.7-3.8-4.6 -0.6-2.5 0.6-9 1.5-9.9 1.2-1.2 1.9-2.3 3-3 2.2-1.4 6-2.5 9.1-2.3 5.5 0.3 8.3 3.4 9.9 6.8 1 2.1 2.2 5.1 2.3 7.6 0.5 11.1-7.6 20.5-16 22.1 -7.8 1.5-16.2-1.1-19.8-3 -5.3-2.9-6.8-4.5-9.9-8.4 -1.4-1.8-3.3-4-4.6-7.6 -4.2 4.2-5.1 9.5-10.6 13.7 -0.6 0.4-1.8 0.4-2.3 0.8 -0.5 0.3-1 1.2-1.5 1.5 -11.2 6.1-28.6 3.8-33.5-6.8C1.9 132.8 1.1 130.5 0 127.8c0-2.3 0-4.6 0-6.8 1.5-5 3.8-9.9 8.4-11.4 7.9-2.7 17.9 1.8 17.5 11.4 -0.1 2.5-1.2 3.9-2.3 6.8 -1.6 1.7-5.5 1.1-6.1 3.8 12.4 3.8 17.9-6.8 19-17.5 1.2-11.3 0-28.4-0.8-44.9 -0.7-15.9 1.3-32 0-43.4 -0.3-2.9-1.4-8.1-3.8-10.6 -2.5-2.7-6.7-5.8-9.1 0 -2.3 1.9 2.6 2.9 3.8 3.8 5.9 5.7 1.3 13.3-4.6 15.2C7.7 39-3.3 24.3 2.3 9.9c0.1-0.3 1.3-1.1 1.5-1.5 0.4-0.6 0.3-1.7 0.8-2.3C7 3.1 14.7 1 18.3 0zM97.4 75.3c4.5-0.4 5.7-2.2 8.4-4.6 4.1-3.5 6-5.9 7.6-11.4 4.1-14.5-1.6-35.9-11.4-40.3 -0.3-0.1-0.4-1.3-0.8-1.5 -8.6-5-22.5-1.8-28.1 3.8 -2.7 2.7-3.3 3.8-4.6 6.8 -2 4.8-3.2 9.4-3.8 14.5 5.5-2.2 9.4-5.4 16-6.1 7-0.8 15.4 0.3 19.8 6.1 5.8 7.8 4.3 23.6-6.1 25.1 -6.6 1-6.5-2.7-12.9-3C79.7 72 89.8 76 97.4 75.3z" class="a"/><path d="M167.3 0c2.8 0 5.6 0 8.4 0 9.4 2.8 16.5 7.9 20.5 16 5.8-6.9 11.9-13.5 22.1-16 3 0 6.1 0 9.1 0 7.3 1.7 14.3 3.8 16.7 9.1 0.1 0.3 1.3 0.5 1.5 0.8 1.7 2.8 3.2 7.4 3 10.6 -0.3 7-5.8 11.9-12.2 15.2 -12.8 2.1-23.2-5.2-18.3-16 1.1-1.1 4.3-0.2 3.8-3 -3.4-2.9-7-0.1-8.4 1.5 -0.9 1-1.1 3.5-1.5 5.3 -0.5 2.3-0.6 4.2-0.8 6.1 -1.2 18.2 0 36 0 53.2 0 9.2-1.1 18.6 0 26.6 0.6 4.7 3.3 9.2 5.3 12.2 0.9 1.3 1.5 3 2.3 3.8 0.6 0.6 1.6 0.3 2.3 0.8 1.5 1.1 2.4 2.3 3.8 3 19.8 10.1 44.7-3.2 44.9-23.6 0.1-6.9-2.1-13.4-7.6-16 1.1 5.1 2.5 8.3 1.5 12.2 -0.7 2.7-5.2 7.5-9.1 8.4 -2.1 0.5-6.4 0.5-8.4 0 -0.2 0-1.2-1.4-1.5-1.5 -1-0.5-2.1-0.1-3-0.8 -1.7-1.2-3.6-4.5-4.6-6.8 -1.3-3.3-1.8-6.1-1.5-9.9 1.1-13.8 15.9-19.7 27.4-17.5 1.3 0.2 2.3 1.6 3.8 2.3 1.5 0.7 3.6 0.9 4.6 1.5 2.7 1.9 7.7 8 9.1 10.6 4.7 8.7 4.9 21 1.5 30.4 -0.3 0.8-1.7 1.9-2.3 3 -0.7 1.5-0.8 3.4-1.5 4.6 -0.7 1.1-2.1 1.8-3 3 -1 1.3-1.6 3.1-2.3 3.8 -1.2 1.2-4.5 3-5.3 3.8 -0.6 0.6-1.6 0.9-2.3 1.5 -0.6 0.6-1.6 0.9-2.3 1.5 -0.6 0.6-0.6 0.2-1.5 0.8 -6.1 3.6-16.6 5.6-26.6 4.6 -14.8-1.5-26.6-9.1-38-21.3 -4.3 13.7-18.2 24.3-34.2 21.3 -1.9-0.4-5.3-2.5-6.1-3 -5.3-3.3-10.2-10.3-9.9-19 0.1-3.3 2.7-10.7 4.6-12.2 0.3-0.2 1.2 0.2 1.5 0 0.3-0.1 0.4-1.4 0.8-1.5 4.1-1.8 11.1-1.3 14.5 0.8 3.5 2.2 5 7.7 4.6 11.4 -0.5 4.7-3.1 7.7-9.1 8.4 11.2 6.6 18.4-4.3 19.8-15.2 1.4-11.6 0-27.7 0-44.1 0-16.8 1.6-33.6 0-44.1 -0.9-6-4.7-13-10.6-10.6 -2.4 2.3 1.5 2.3 2.3 3.8 6 4.5-0.1 13.4-4.6 15.2 -9.1 3.6-20.8-1.8-23.6-9.1C145.3 8.9 154.4 2.6 167.3 0z" class="a"/><path d="M309.6 0c2.5 0 5.1 0 7.6 0 10.6 3.3 18.5 9.4 23.6 18.3 5.2-5.5 10.2-8.3 16.7-11.4 2.2-1.1 3.8-2.3 6.1-3 4.4-1.5 9.9-2.7 14.5-3 13.9-1.2 23.9 2 31.2 6.8 3.7 2.5 4.8 3.9 6.8 6.8 1.6 2.3 2.8 3 3.8 5.3 5.1 11.9-1 28.3-11.4 30.4 -10.8 2.1-20.8-4.1-22.8-9.1 -2-5-0.7-12.2 0.8-13.7 2.8-2.9 5-5.5 9.1-6.1 2.7-0.4 5.4 0.3 8.4 0.8 0.7-1.1-1.1-2.6-1.5-3 -14.2-16-43.6-0.4-47.9 13.7 -3.7 12.1 0.5 33 11.4 31.9 5.1-1.4-0.8-9.3 2.3-12.9 4.4-9.3 18.6-5.3 21.3-0.8 3.5 5.8 2.1 17.9-3 22.8 -4.2 3.9-13.2 4.6-20.5 3.8 -4.4-0.5-8.3-2.2-11.4-3.8 -0.9 27.9 3.7 53.2 24.3 57.8 9.2 2.1 18.3-1 24.3-4.6 12-7 18.2-22.2 9.9-36.5 -1.3 6.7-0.7 10.1-3.8 13.7 -2.2 2.6-6.5 5.1-9.9 5.3 -10.1 0.8-17.3-7.5-18.3-13.7 -0.2-1.6 0.1-9.6 2.3-13.7 0.4-0.7 1.7-1.5 2.3-2.3 1.9-2.3 2.7-2.9 4.6-3.8 7-3.2 20.6-2 25.1 2.3 0.5 0.5 0.9 0.3 1.5 0.8 7.8 6 14.4 21.9 10.6 35.7 -9.8 35.6-65.1 43.2-85.9 6.8 -2.7 2.9-3.7 5.8-5.3 8.4 -2.5 4-4.8 6.3-8.4 9.1 -5.1 4.1-12.9 7.9-22.8 6.1 -1.8-0.3-3.8-1.9-4.6-2.3 -1-0.5-2.1-0.1-3-0.8 -2-1.3-5.1-5.6-6.1-7.6 -1.9-3.8-3.1-13.5-1.5-17.5 2.3-5.9 13.8-12.2 22.1-6.8 3.9 2.5 6.1 10.9 3 15.2 -1.8 2.5-4 3.3-9.9 3 4.6 5.9 14.1 2.4 17.5-2.3 0.8-1.2 2.6-5.8 3-8.4 1.6-10.3 0-27.8 0-44.9 0-16.5 1.3-34.3 0-44.9 -0.7-5.6-2.8-11.7-8.4-11.4 -1.6 0.9 1.9 3.1 1.5 5.3 2.1 6.4-3 11.9-7.6 12.9 -8.1 1.7-18.7-3.3-19.8-12.9 -0.7-5.7 1.6-10.3 3-12.9 2.4-4.2 4.4-5.3 8.4-6.8C304.7 1.5 306.5 0.7 309.6 0z" class="a"/><path d="M442.7 0c1.5 0 3 0 4.6 0 16 3.3 25.1 13.5 35.7 22.1C482 8.5 488.5 2.3 498.9 0c2.3 0 4.6 0 6.8 0 2.2 0.9 3.8 1.2 6.1 2.3 2.6 1.2 8.3 6.6 9.1 9.1 3.6 10.7-4.6 22.6-15.2 19.8 -2.1-0.5-6-4-6.1-7.6 -0.1-6.2 6.3-5.3 6.8-12.2 -3.3-3.5-7-1-9.1 0.8 -2.1 1.8-3.8 6.5-3.8 8.4 0 2.6 1.5 5.1 3 7.6 1.2 2 3.1 3.4 4.6 5.3 0.5 0.7 0.2 1.7 0.8 2.3 1.9 2 5.3 6.4 7.6 9.1 6.9 8.3 14.1 15.3 18.3 21.3 6.2-8 16.3-21.5 23.6-31.9 3.4-4.9 8.5-11.7 5.3-19 -1-2.2-2.5-4.5-5.3-5.3 -1.8-0.5-5.8-2.6-6.8 2.3 0.6 2.3 3.4 1.8 5.3 3 2.2 1.5 5.7 4.4 3.8 10.6 -2 6.8-14.8 6.3-19.8 3 -2.3-1.5-4.6-4.1-5.3-7.6 -1.2-6.1 1-14.7 5.3-18.3 0.6-0.5 1-0.3 1.5-0.8 0.9-0.9 4.1-0.9 6.1-2.3 2.3 0 4.6 0 6.8 0 7.9 1.7 13.5 5.8 16 12.9 4.8-5.6 9.8-11 18.3-12.9 2.5 0 5.1 0 7.6 0 11.1 1.5 20.2 11.3 18.3 23.6 -1.4 8.6-9 13.3-20.5 12.2 -2.4-2-4.8-3.8-5.3-6.8 -1-5.6 3.4-9.6 3.8-14.5 -2.8-1.1-5 1.7-6.8 3 -4.8 3.6-7.6 7.5-10.6 12.2 -3.5 5.3-7.9 11.6-10.6 16 -0.4 0.7-0.3 1.6-0.8 2.3 -0.7 1.1-2.3 1.9-3 3 -6.7 9.8-12.6 20-19 28.9 0.4 21.1-4.8 58.9 19 51 -3.8-2.5-7.4-3.6-8.4-7.6 -2.8-12.2 12.4-18.3 19-13.7 2.1 1.4 5 4.7 6.1 8.4 2.1 6.9-1.3 16.7-3.8 19.8 -2.3 2.8-8.5 7-12.2 7.6 -11.8 2.1-21.4-3-27.4-9.9 -1.2-1.4-2-3.6-3-5.3 -1-1.6-2.4-3.5-3-5.3 -3.1 2.7-4.1 7.4-6.8 10.6 -1.5 1.8-5.2 4.3-6.8 5.3 -0.5 0.3-1 1.2-1.5 1.5 -6 3.3-21.8 4.6-26.6 0 -1.9-1.8-4-4-5.3-6.1 -0.3-0.5-1.3-1-1.5-1.5 -3.6-7.6-2.4-20.9 3-24.3 9-5.7 21.9 1 20.5 11.4 -0.6 4.7-3.4 7.3-9.1 8.4 11.6 6.6 18.4-4.2 19.8-15.2 0.9-7.6 1-26.4 0-31.9 -0.9-4.9-5.9-11.5-7.6-15.2 -0.1-0.2-1.3-0.5-1.5-0.8 -0.2-0.3 0.2-1.1 0-1.5 -0.1-0.2-1.3-0.5-1.5-0.8 -1-1.4-1.3-3.3-2.3-4.6 -1.1-1.5-2.6-2.2-3.8-3.8 -0.5-0.6-0.4-1.7-0.8-2.3 -1.5-2.2-3.9-4.4-5.3-6.1 -9.3-11.4-19.2-22.3-28.9-28.9 0.1 4.9-0.1 8.4-1.5 9.9 -1.1 1.2-1.8 2.4-3 3 -14 7.3-24.8-6.7-22.8-19C429.5 5.2 435.4 1.8 442.7 0z" class="a"/><path d="M634.3 0c2.5 0 5.1 0 7.6 0 10.8 3.2 18.5 9.4 23.6 18.3 5.2-5.5 10.1-8.2 16.7-11.4 2.1-1 4-2.3 6.1-3 7.8-2.7 17.2-3.9 26.6-3 9.4 0.9 19.6 5.7 24.3 10.6 3.7 3.8 7.5 11.1 7.6 17.5 0.4 15.1-11.5 25.1-26.6 20.5 -1.4-0.4-2.5-1.9-3-2.3 -0.7-0.5-1.7-0.2-2.3-0.8 -2.4-2.1-2.7-3.9-3.8-6.1 -0.3-0.6-1.4-1.4-1.5-2.3 -1.2-6.7 2.8-13.2 4.6-14.5 1-0.7 4.6-2.1 6.1-2.3 2.7-0.4 5.5 0.3 8.4 0.8 -3.3-8.4-12.9-10.4-20.5-9.9 -4.9 0.3-12 2.8-16.7 6.1 -0.3 0.2-0.4 1.2-0.8 1.5 -0.7 0.5-1.7 0.3-2.3 0.8 -7.3 6.2-11.5 14.2-9.9 28.1 0.9 7.7 4.4 16.2 12.2 16 5.1-1.4-0.8-9.3 2.3-12.9 2.8-8.6 18.2-5.9 21.3-0.8 3.9 6.6 2 18.1-3 22.8 -1.2 1.1-4.5 2.8-5.3 3 -9.1 2.8-21.2 0.2-25.9-3 -2.6 26.1 3.3 53.3 23.6 57.8 8.8 2 17.2-0.4 24.3-4.6 12-7 18.3-21.7 9.9-36.5 -2.2 1.3 0.7 7.8-1.5 9.1 -2.3 5.6-6.8 9.5-12.2 9.9 -6.6 0.5-15.5-4.6-17.5-10.6 -2.5-7.4 1.2-18.8 6.1-22.1 1.5-1 3.6-1 5.3-1.5 2.1-0.6 4-1.5 6.1-1.5 5.7-0.2 10.8 2.2 13.7 3.8 1.2 0.7 2.8 0.8 3.8 1.5 5.3 4 10.5 13.2 11.4 19 0.6 3.7 0.5 9.4 0 13.7 -2.2 16.9-18.5 31.4-37.3 33.5 -11.9 1.3-22.2-1.8-28.9-4.6 -6.5-2.7-10.7-7.3-14.5-11.4 -1.9-2-4.4-3.6-6.1-7.6 -1.8 1.5-2.7 3.4-3.8 5.3 -2.6 4.4-3.6 6.7-6.8 9.9 -2.8 2.8-4.6 3.7-7.6 5.3 -1.1 0.6-2.4 2.1-3 2.3 -9.1 2.8-18.8-0.1-22.8-3 -4.6-3.3-5.2-5.2-6.8-10.6 -1-3.2-1.8-5.4-1.5-8.4 0.5-6.5 5.1-12.5 10.6-13.7 10.3-2.2 16.7 4.2 16.7 10.6 0 3.8-2.2 10.7-11.4 9.1 2.4 4 7.1 3.3 10.6 2.3 5.1-1.5 9.1-7.2 9.9-12.2 1.6-10.6 0-28.2 0-45.6 0-17 1.6-34.9 0-45.6 -0.8-5.1-3-10.9-8.4-10.6 -1.2 1.5 1.1 2.5 1.5 3.8 2.1 6.3-1.2 11.2-4.6 12.9 -8.3 4.2-21.9-0.1-22.8-12.2 -0.2-2.3 0.5-6.1 1.5-9.1 0.7-1.9 2.4-3.8 3-4.6 0.5-0.7 0.2-1.7 0.8-2.3 1.6-1.6 4.1-2.2 6.1-3C629.7 1.4 631.4 0.8 634.3 0z" class="a"/><path d="M781.9 0c2.5 0 5.1 0 7.6 0 10.2 2.3 16.7 8.1 21.3 16C816.3 8.8 822.3 2.1 832.8 0c2.8 0 5.6 0 8.4 0 9.7 1.7 18.1 6.1 20.5 13.7 2.3 7.1 0.3 12-3 16 -3.5 4.2-9.9 7.8-18.3 6.1 -5.6-1.2-12.8-9.5-7.6-15.2 0.1-2.4 4.1-1 3.8-3.8 -4.2-3.3-8.6 0.9-9.9 3.8 -1.8 4.1-0.8 13.6-0.8 22.1 0 8 0 16.4 0 22.8 0 17.3-1.9 37.2 0.8 47.9 4.6 19 28.5 25.4 44.9 14.5 3.4-2.3 8.4-7.5 9.9-10.6 3.6-7.4 4.3-19.9-3.8-27.4 -0.9 5 1.2 10-0.8 14.5 -2 4.5-9.4 8-16.7 6.1 -3.1-0.8-8.4-7.6-9.1-9.9 -2.9-9.4 1.3-19.1 6.1-22.1 0.7-0.4 1-1.2 1.5-1.5 6.8-4.2 21.7-4 26.6 0.8 0.5 0.5 0.9 0.3 1.5 0.8 5.6 4.2 10.5 13.4 11.4 19 2.1 12.9-1.5 21.9-6.8 29.7 -5.1 7.4-10.7 11.9-19 15.2 -3 1.2-5.9 2.7-8.4 3 -17.8 2.5-31.5-3.9-40.3-9.9 -4.5-3.1-8.8-6.8-11.4-11.4 -2.2 2.8-3.4 5.1-4.6 6.8 -2 3.1-4.3 6.4-6.8 8.4 -2.3 1.8-2.9 2.6-5.3 3.8 -0.9 0.4-2.7 1.4-3 1.5 -21.9 6.5-33.7-10.8-31.2-25.1 0.4-2.4 2.5-7.4 5.3-9.1 4.2-2.5 14.2-2 17.5 1.5 0.4 0.4 0.5 1.9 0.8 2.3 0.3 0.4 1.3 1 1.5 1.5 0.8 2.5 0.4 8.1 0 9.1 -1.1 2.9-3.8 4.4-8.4 5.3 2.4 2.6 6 2.8 9.9 1.5 6-2 9.1-11.4 9.9-19.8 0.9-10.2 0-25.1 0-39.5 0-14.4 0.7-29.2 0-40.3 -0.6-8.6-3.3-18.8-11.4-16 -0.9 3.1 2.4 3.1 3 3.8 7.5 8.2-4.9 18.9-17.5 16 -5.4-3.4-10.5-5.7-11.4-12.2C758.8 11.3 769.9 0.9 781.9 0z" class="a"/><path d="M143.7 227.4c-0.8-7.5 8.2-8.9 14.5-6.8 7-4.9 3.7-17.6 7.6-25.1 2.1-4 6.7-8.1 12.9-8.4 1.5 3.4-2 4.3-3 7.6 -1.8 5.6-0.8 13-3 18.3 -1.3 3-5.7 6.6-8.4 9.1 3.8 1.6 5.8 4 9.9 3.8 5.9-0.3 8.1-5.2 9.9-9.1 2.1-4.6 3.8-10.8 3.8-15.2 -0.1-13.9-9.9-26.3-23.6-20.5 -3.7 1.6-10 5.9-9.9 11.4 0.1 3.7 1.2 3 2.3 4.6 0.5 0.7 2.5 1.7 1.5 3.8 -8.3 7.3-13.6-4.2-8.4-12.9 0.4-0.7 1.8-0.9 2.3-1.5 0.9-1.2 2.6-4 4.6-5.3 0.2-0.2 2.1-1.1 3-1.5 5.9-2.9 21-3.1 27.4 0 7.7 3.8 14.1 15.3 9.9 29.7 -0.2 0.7-1.7 2.6-2.3 3.8 -0.7 1.4-0.9 2.9-1.5 3.8 -0.5 0.7-1.8 0.9-2.3 1.5 -0.4 0.5-0.3 1.9-0.8 2.3 -0.8 0.8-3 1.9-4.6 3 -6.4 4.7-19.3 9.6-28.9 3C153.5 228.7 146.6 231.7 143.7 227.4z" class="a"/><path d="M397 177.2c-0.6 9.4-3.9 18.2-6.1 26.6 -2.2 8.7-4 17.3-7.6 25.1 -3.7-0.2-5.8 1.3-9.9 0.8 -0.8-3.6 1.9-7.1 3-10.6 3.5-10.5 6.2-22.6 9.9-33.5 -0.9-0.6-3.6 1.9-5.3 3.8 -1.5 1.7-2 6.1-5.3 5.3 -0.9-2.2 2.2-6.6 4.6-9.1 1.4-1.6 4.1-3.5 6.1-5.3C388.1 178.7 391.8 176.5 397 177.2z" class="a"/><path d="M424.4 177.2c-0.8 3.8-6 3.6-6.8 8.4 -0.3 1.5 0.1 3.5 0.8 5.3 0.9 2.4 4.2 6 4.6 6.1 1.8 0.3 6.1-5.3 7.6-6.8 -2.6-3.9-4.3-13.7 4.6-12.9 2.3 1.6 2 8.2 0 9.9 0.2 1.1 2.3 0.3 2.3 1.5 0.8 1.9-2.6 3.4-3 1.5 -2.9 2.9-5 6.7-9.1 8.4 2.3 5.4 8.5 8.5 6.1 19 -0.1 0.5-1.2 1.6-1.5 2.3 -1.1 2.4-4.1 5-6.8 7.6 -1.9 1.8-10.6 3.4-15.2 1.5 -1-0.4-2.3-2.3-3-3 -1.3-1.2-2.2-1.8-3-3 -1.3-12 5.6-15.7 12.2-19.8 -1.5-2.5-2.8-5.3-4.6-7.6C408.4 183.5 414 178 424.4 177.2zM404.6 216.8c-1.3 7.5 6 11.3 12.2 9.9 1.8-0.4 5.4-3.1 6.1-5.3 2.2-7.2-2.5-10.2-6.1-16 -0.9 0.1-2.2-0.1-2.3 0.8C410.3 208.1 405.5 211.9 404.6 216.8z" class="a"/><path d="M464 177.2c3.7 0.1 0.2 2.6 0 3 -1.8 3.6-4.8 6.3-6.8 10.6 -1.1 2.3-2.1 5.5-3 8.4 -1.3 4.3-1.8 7.4-2.3 12.9 -0.3 3.8-0.9 9.5 3.8 12.2 10.9-3.6 12.8-17.2 16-28.9 0.1-2.1-2.1-1.9-3-3 -4-2-1.7-15 3.8-15.2 4.5 0.3 2.6 7 3 11.4 -0.9 3.5 2.1 3 1.5 6.1 -3-1.2-1.6 2-3 2.3 -1 8-4.1 17.2-8.4 23.6 -2.4 3.6-3.6 4.8-6.8 6.8 -1.2 0.7-4.9 2.7-8.4 2.3 -11.9-1.5-10.4-20.8-6.1-31.2 2-4.8 4-7.7 6.8-11.4 1.9-2.4 2.4-3.3 4.6-5.3 1.1-1.1 3.3-1.8 5.3-3 0.7-0.4 1.3-1.4 2.3-1.5C463.4 177.2 463.7 177.2 464 177.2z" class="a"/><path d="M514.9 177.2c-6.5 17.3-15.9 31.7-20.5 51 -3.1 0.7-8 2.8-11.4 0.8 3.5-18.3 16.7-26.9 24.3-41.1 -3.1-1.4-7.3-1.1-12.2-1.5 -3.6-0.3-5.8-0.9-8.4 1.5 -0.9 0.9-0.6 3.7-3 3.8 -2.9-0.5-0.5-4.1 0-6.1 0.7-2.4 1.8-5.1 2.3-6.8C493.7 174.6 506.1 179.9 514.9 177.2z" class="a"/><path d="M629 202.3c-0.9-5.3 6.1-6.8 5.3-14.5 -0.4-4.2-3.8-7.6-7.6-8.4 -11.5-2.3-29.7 12.2-16.7 19.8 -2.9 4.8-10.2 5.6-11.4-1.5 -0.9-5.4 2-9.5 5.3-12.9 4.3-4.5 14.7-10.2 26.6-7.6 3.6 0.8 10.4 4.2 10.6 12.9 0.1 3.3-1.8 7.2-3 9.1C637.1 200.9 632.9 204.7 629 202.3z" class="a"/><path d="M550.7 180.3c0.2 3.1 1.4 5.2 2.3 7.6 0.3 2.4 3.8 4.2 2.3 6.1 -2.2 0.8-3-1.2-4.6-2.3 -2.3-1.6-3.5-2.3-5.3-4.6 -0.9-1-3-3.5-3-6.1C545.9 181.6 547.2 179.8 550.7 180.3z" class="a"/><path d="M314.9 183.3c1.8 1.7 5.8 2 8.4 0.8 1.4 7.4-6.4 10.6-11.4 6.8C312.6 188.1 313.7 185.7 314.9 183.3z" class="a"/><path d="M708.9 183.3c2.6 1 6 2.4 9.1 0.8 1.1 7.8-6.6 10.3-12.2 6.8C706.7 188.2 708.8 186.8 708.9 183.3z" class="a"/><path d="M630.5 184.8c-0.1 3.2-2.8 5.1-3.8 8.4 -1.2 4.1-1.4 9.1-2.3 13.7 -0.8 4.2-1.2 8.6-3 12.2 -0.2 0.3-1.4 0.5-1.5 0.8 -3.5 7.8-26.6 17.3-28.9 0.8 2.3-2.5 4.8-4.9 9.1-5.3 1.5 2.5-1.4 7.6 0.8 10.6 0.9-0.1 1.4 0.2 1.5 0.8 9.7-1.1 10.7-11.4 12.2-19.8 1.4-7.9 1.7-15 7.6-19.8 0.6-0.5 1-0.3 1.5-0.8C624.5 185.5 627.7 184.6 630.5 184.8z" class="a"/><path d="M232.7 214.5c-6.6 5.2-11.8 16.4-23.6 15.2 -1.3-0.1-4.1-0.8-5.3-1.5 -5.3-3.4-5.3-13.2-2.3-19.8 1.9-4.2 8.9-12.6 17.5-10.6 1.7 0.4 2.4 1.7 4.6 3 0 2.3 0 4.6 0 6.8 -3.9 3.9-8.4 7.3-15.2 8.4 0.6 9.2 8.1 8.5 13.7 4.6 6.5-4.6 12.8-15.5 14.5-21.3 2.7-0.4 5.7-0.3 7.6-1.5 1.7 0.3 0.6 4 0 4.6 1.5 0.6 2.4-1.4 3.8-2.3 6-3.8 13.5-1.4 14.5 6.8 1.3 11.3-11.2 27.9-22.8 21.3 -2.7 4.4-2.9 11.2-3.8 17.5 -2.6 0.9-5.7 1.4-9.1 1.5C227.8 235.4 230.1 224.7 232.7 214.5zM207.6 213.7c5.3-1.5 9.8-3.9 9.1-11.4C211.2 198.3 207.6 207.3 207.6 213.7zM251 204.6c-1.4 0.2-1.7-0.9-3-0.8 -6.1 3.5-6.3 12.9-8.4 20.5 1.1 0.4 1.9 1.2 2.3 2.3C251.4 228 255.8 208.8 251 204.6z" class="a"/><path d="M277.6 223.6c10.4-2.1 10.4-14.5 13.7-23.6 2.8-1.2 6.8-1.3 9.9-2.3 -0.6 8.8-7 15.7-4.6 25.1 11.6-1 10.1-15.3 14.5-23.6 4 0.2 6.3-1.3 9.9-1.5 -2.3 7.5-5.8 14-6.1 23.6 5 1.5 9.3-4.8 12.2-8.4 3.1-3.9 6.5-8.7 7.6-13.7 3.4-0.2 5.5-1.6 9.1-1.5 -0.5 1.8-1.1 3.5-0.8 6.1 1 3.1 3.4 4.7 3.8 7.6 1.7 12-14.5 24-22.8 15.2 0.3-3.5 2.4-5.2 4.6-6.8 3.5 0.3 2.2 5.4 5.3 6.1 2.9-0.8 5.5-2.3 6.1-4.6 1.4-5-4.1-10.1-5.3-13.7 -3.5 4.3-6.9 8.9-10.6 12.9 -3.6 3.9-7.3 9.1-14.5 9.1 -2.1-1.7-4-3.6-3.8-7.6 -5 2.6-7.3 7.9-15.2 7.6 -2.1-1.7-4-3.6-3.8-7.6 -2.1-0.5-3.2 2.7-6.1 4.6 -2.5 1.6-5.5 4.2-9.1 3 -8.1-2.6-2.5-21.9 0.8-29.7 2.1-1.4 6.4-0.7 8.4-2.3 1.3-0.3 1.4 0.6 1.5 1.5 -2.2 3-2.7 7.9-3.8 12.2C277.3 215.5 274.2 220 277.6 223.6z" class="a"/><path d="M559.8 201.6c3.4-0.9 4.7-3.9 9.1-3.8 -1.4 8.5-5.8 14-5.3 24.3 2.2 0.9 4.1-0.2 6.1-1.5 1.6-1.1 2.3-4.5 3.8-3 0.9 5.2-3 5.6-5.3 7.6 -3.2 5.8-14.9 7-12.9-4.6 -4.6 1.8-6.1 9.9-13.7 9.1 -8-0.8-8.8-12.8-5.3-19.8 1.7-3.5 6.6-8.6 10.6-10.6 2.4-1.2 4.8-1.8 9.1-1.5C557.4 198.8 558.7 200.1 559.8 201.6zM544.6 222.1c4.4 1.8 7.9-2.7 9.9-6.8 1.9-3.9 3.8-10.7 0.8-14.5C546.1 201.8 542.7 212.5 544.6 222.1z" class="a"/><path d="M686.8 209.9c-4.4 0.7-7 3.1-8.4 6.8 -6.4 4.2-8.8 12.5-19 12.9 -2.8-1.6-3.6-5-3.8-9.1 -3.4 2.7-4.7 6.6-9.1 8.4 -1.2 0.5-2.6 0.9-3.8 0.8 -1.3-0.1-3.9-1-4.6-1.5 -0.7-0.6-0.2-1.5-0.8-2.3 -0.3-0.5-2-1.7-2.3-3 -1-4.7 1.1-12.2 3-15.2 0.4-0.7 1.8-0.9 2.3-1.5 0.5-0.7 0.2-1.7 0.8-2.3 0.5-0.5 1.7-1.1 2.3-1.5 2.6-2.2 14-9 16.7-0.8 4-0.5 4.9-4.2 9.9-3.8 -0.8 3.7-2.6 7.8-3.8 12.2 -1.1 3.9-3.4 8.9-0.8 12.2 3.1 1.5 4.9-2.6 6.8-4.6 2.1-2 4.8-3.9 6.1-6.1 -6.1-3.3-2.1-15.5 6.1-13.7 1.7 2.3 0.3 6.5 0 9.1 3.7-0.3 4.9-2.7 6.8-4.6 1.7-1.6 2.2-5.4 6.1-4.6 -0.8 3.1-1.6 6.2-3 9.9 -1.2 3.2-5.3 10.1-2.3 14.5 11.7-0.5 8.8-15.5 13.7-22.8 3.7 0.1 6.1-1 9.1-1.5 -0.8 8.8-5.9 13.4-5.3 23.6 3.4 2 4.8-1.3 6.8-3 5-4.4 10.5-11.6 12.9-19 3.4-0.2 5.5-1.6 9.1-1.5 -1.1 1-0.5 3.6-1.5 4.6 1 5.5 5.7 6.2 4.6 13.7 -1.5 9.7-16 19.3-22.8 9.9 0.4-3.1 2.5-4.6 4.6-6.1 3.1 0.7 2.4 5.2 5.3 6.1 10.3-1.6 4.5-12.9 0.8-18.3 -1.8 1.3-2.9 3.6-4.6 5.3 -0.1 0.1-0.7 0.7-0.8 0.8 -3.1 4.5-7.3 10.4-12.9 13.7 -2 1.2-4 3.1-6.8 2.3 -2.1-1.7-4-3.6-3.8-7.6 -3.6 1.1-7.8 8.8-13.7 7.6C678.3 227.9 683.2 215.3 686.8 209.9zM646.5 209.2c-1.7 3.8-4.4 11.4 0.8 12.9 3.3 1.2 6.6-3.7 8.4-7.6 1.8-4.1 4.1-10.8 0-13.7C651.4 200.4 648.2 205.2 646.5 209.2z" class="a"/></svg>